<svg width="8.500000in" height="11.000000in" viewBox="0 0 816.000000 1056.000000" xmlns="http://www.w3.org/2000/svg">

<defs>
<marker
    style="overflow:visible"
    id="Arrow1Sstart"
    refX="0.0"
    refY="0.0"
    orient="auto">
    <path
        transform="scale(0.2) translate(6,0)"
        style="fill-rule:evenodd;fill:context-stroke;stroke:context-stroke;stroke-width:1.0pt"
        d="M 0.0,0.0 L 5.0,-5.0 L -12.5,0.0 L 5.0,5.0 L 0.0,0.0 z "
        />
    </marker>
</defs>

<g>
<line x1="504" x2="408" y1="528" y2="528" stroke="red" stroke-width="5" marker-start="url(#Arrow1Sstart)" /> />
<line x1="408" x2="408" y1="432" y2="528" stroke="green" stroke-width="5" marker-start="url(#Arrow1Sstart)" /> />
<text x="417.6" y="518.4">{A}</text>
</g>
<g>
<line x1="504" x2="408" y1="432" y2="432" stroke="red" stroke-width="5" marker-start="url(#Arrow1Sstart)" /> />
<line x1="408" x2="408" y1="336" y2="432" stroke="green" stroke-width="5" marker-start="url(#Arrow1Sstart)" /> />
<text x="417.6" y="422.4">{B}</text>
</g>
<g>
<line x1="408" x2="408" y1="720" y2="624" stroke="red" stroke-width="5" marker-start="url(#Arrow1Sstart)" /> />
<line x1="504" x2="408" y1="624" y2="624" stroke="green" stroke-width="5" marker-start="url(#Arrow1Sstart)" /> />
<text x="417.6" y="614.4">{C}</text>
</g>
<circle cx="552" cy="384" r="3" stroke="purple" fill="purple" stroke-width="1" />
<circle cx="552" cy="384" r="3" stroke="brown" fill="brown" stroke-width="1" />
<circle cx="552" cy="384" r="3" stroke="orange" fill="orange" stroke-width="1" />
<line x1="475.882" x2="408" y1="364.118" y2="432" stroke="brown" stroke-width="5" marker-start="url(#Arrow1Sstart)" /> />
<line x1="504" x2="408" y1="432" y2="528" stroke="purple" stroke-width="5" marker-start="url(#Arrow1Sstart)" /> />
<line x1="504" x2="408" y1="528" y2="624" stroke="orange" stroke-width="5" marker-start="url(#Arrow1Sstart)" /> />
</svg>
